<svg xmlns="http://www.w3.org/2000/svg" viewBox="0 0 23.06 22.84"><defs><style>.cls-1{isolation:isolate;}.cls-2{fill:#ee7bac;mix-blend-mode:hard-light;}</style></defs><g class="cls-1"><g id="Capa_2" data-name="Capa 2"><g id="Capa_1-2" data-name="Capa 1"><path class="cls-2" d="M23.06,3.5V19.34a3.52,3.52,0,0,1-3.53,3.5H15.77c0-2.54,0-5.08-.08-7.62l3.53,0c.14-1.33.29-2.65.43-4H15.74c0-1,.07-2,.11-3.06a1,1,0,0,1,.37-.5,1.06,1.06,0,0,1,.62-.22h2.6v-4H14.78a4.38,4.38,0,0,0-2.62,1.28A4.26,4.26,0,0,0,11,7.57c0,1.21,0,2.42,0,3.62l-2.49,0v3.89l2.47,0c0,2.59,0,5.17,0,7.76H3.53A3.52,3.52,0,0,1,0,19.34V3.5A3.52,3.52,0,0,1,3.53,0h16A3.52,3.52,0,0,1,23.06,3.5Z"/></g></g></g></svg>