<svg xmlns="http://www.w3.org/2000/svg" viewBox="0 0 296.92 303.78"><defs><style>.cls-1{isolation:isolate;}.cls-2{fill:#fff;stroke:#fff;stroke-miterlimit:10;stroke-width:0.26px;opacity:0.49;mix-blend-mode:soft-light;}</style></defs><g class="cls-1"><g id="Capa_2" data-name="Capa 2"><g id="Capa_1-2" data-name="Capa 1"><path class="cls-2" d="M122.52.94,123,.81l.21,0,.57-.08A2.17,2.17,0,0,0,125.09.5l.82-.12.32-.07.93,0a30.3,30.3,0,0,0,4.9,6v0a.23.23,0,0,0,.24.26l.46.38a12.61,12.61,0,0,0,3.4,2.78l.36.24a3.49,3.49,0,0,0,1.66,1c0,.07,0,.11.1.12a14.09,14.09,0,0,0,4.06,1.76,3.49,3.49,0,0,0,1.34.34,8.43,8.43,0,0,0,2.78.39,8,8,0,0,0,3.2-.1,1.09,1.09,0,0,0,.9-.07l.79-.2A.55.55,0,0,0,152,13l.6-.09a17.47,17.47,0,0,0,7.71-4,.91.91,0,0,0,.75-.56A5.52,5.52,0,0,0,163,6.63l.27-.24A5.28,5.28,0,0,0,165,4.48h0a3.92,3.92,0,0,0,1.39-1.65l.42-.46a.21.21,0,0,0,.22-.25V2.07c.8-.87,1.22-2.33,2.85-1.84l.56,0a.69.69,0,0,0,.65.07,1.21,1.21,0,0,0,.87.15,2.33,2.33,0,0,0,1.27.23l.58.07.21,0,.51.11,6.93,1.43a2.25,2.25,0,0,0,1.29.29,28.82,28.82,0,0,0,4.37,1.1l.29.07a6.42,6.42,0,0,0,2.3.67,1,1,0,0,0,.79.21l5.39,1.81.86.15a31.55,31.55,0,0,0,5.31,2c.49.51,1.39.09,1.77.83A65.25,65.25,0,0,0,205,16.73c1.07,4,2.43,7.9,5.32,11a1,1,0,0,0,.58.72A2.84,2.84,0,0,0,212,29.57l.59.52a4.59,4.59,0,0,0,1.78,1.4.12.12,0,0,0,.1.13c0,.14.06.2.19.17l.41.14a13.08,13.08,0,0,0,5.78,2.35,1.78,1.78,0,0,0,1,.18,13.58,13.58,0,0,0,4.88.27,5.13,5.13,0,0,0,2.06-.21l.77-.11.77-.15a.4.4,0,0,0,.5-.07l.52-.13A23.3,23.3,0,0,0,238,31.88c1.36-.64,2.64-1.36,3.94.06h0a59.86,59.86,0,0,0,5.19,4.49,1.39,1.39,0,0,0,.8.72,17.17,17.17,0,0,0,2.94,2.71.92.92,0,0,0,.54.5,7,7,0,0,0,1.84,1.84l.27.25a8.93,8.93,0,0,0,2.1,2.15l.25.27a6.89,6.89,0,0,0,1.77,1.84h0c1,1.19,1.87,2.47,2.94,3.56s1.36,2.46,2.82,2.88h0c.36,1.24,1.39,2,2.09,3a1.85,1.85,0,0,1,.41,1.53l-.24.54a19.75,19.75,0,0,0-2.07,5.26h0l-.12.24-.1.56a19.66,19.66,0,0,0-1.15,5.61,19.67,19.67,0,0,0,1.15,9.64c.06.18.11.36.17.54a7.83,7.83,0,0,0,1.27,2.65l.32.51a1.14,1.14,0,0,0,.56.88l.25.43a6.37,6.37,0,0,0,2,2.19v0a6.63,6.63,0,0,0,2.14,2l0,0a11.83,11.83,0,0,0,3.3,2.07.2.2,0,0,0,.21.08,8.88,8.88,0,0,0,3.14,1.36l.52.17a2.07,2.07,0,0,0,1,.44L279,93l.09.08.12,0,.6.18a23.36,23.36,0,0,0,6,1c1,.06,1.81.26,2.12,1.37.1.3.21.59.31.89l0,0,.06,0c0,.23-.05.48.23.6l1.83,5c.12.43.24.87.35,1.31a47,47,0,0,0,1.9,5.7l.11.88c.52,2,1.05,4.08,1.57,6.12a7.26,7.26,0,0,0,.47,2.06l1.79,9.46c.06.38.11.76.16,1.13,0,.15.05.3.08.45,0,.46,0,.94-.44,1.24A15.48,15.48,0,0,0,293,133h0c-.17,0-.24.08-.25.24v0a9.59,9.59,0,0,0-2,1.83h0a10.84,10.84,0,0,0-1.88,2.06.3.3,0,0,0-.24.39,17.92,17.92,0,0,0-4.05,6.49v0l-.07.06,0,.07c-.06.16-.13.31-.19.47a18.61,18.61,0,0,0-.14,13.88l.35.84,0,0,.07,0,0,.06a18.86,18.86,0,0,0,4.07,6.62h0a5.78,5.78,0,0,0,1.72,1.89l.2.23.17.17,0,.06c0,.15,0,.25.21.23a.22.22,0,0,0,.19.08,22.65,22.65,0,0,0,5.7,4.52c.21,1-.33,1.88-.21,2.84q-.88,4.74-1.78,9.46a2.53,2.53,0,0,0-.29,1.32l-.07.08,0,.1-.15.6-1.56,6.08-.31,1.3c-.56,1.73-1.12,3.46-1.7,5.19-.71,2.13-1.45,4.26-2.17,6.39a2.55,2.55,0,0,0-.47,1.33l-.58,1.26-.49.08a20.76,20.76,0,0,0-7.77,1.16l-1,.42a2.61,2.61,0,0,0-.88,0,24,24,0,0,0-9.17,5.37,19.06,19.06,0,0,0-5.42,9.3c-1.59,6.94-.21,13.36,2.78,19.58a.21.21,0,0,0,.09.23,2.19,2.19,0,0,1-.41,2.68c-1.91,2.21-3.7,4.52-5.54,6.78h0a8.69,8.69,0,0,0-2.11,2.33h0a9.39,9.39,0,0,0-1.91,1.92l-.41.49a5.61,5.61,0,0,0-1.52,1.55l-.48.42a11.15,11.15,0,0,0-1.87,1.95h0a6.3,6.3,0,0,0-2.11,2.06h0a20.22,20.22,0,0,0-3.76,3.28l-.46.38a25.48,25.48,0,0,0-2.68,2.15c-1.16,1.2-2.32,1.7-3.8.67l-1.21-.49a15.42,15.42,0,0,0-4.46-1.63l-1.05,0a.26.26,0,0,0-.19-.12l-.27-.22-.55-.14-.26,0a15.13,15.13,0,0,0-2-.41c-2.4-.17-4.82-.5-7.18.33a1.07,1.07,0,0,0-.87.12.53.53,0,0,0-.54.15l-1.52.39a9,9,0,0,0-3.18,1.59l-.72.37h-.11l-.06.11,0,0a4.87,4.87,0,0,0-1.67,1.32.48.48,0,0,0-.44.38,15,15,0,0,0-3.87,4.57l-.2.36-.06,0,0,0c-.16.26-.32.53-.47.8a14.09,14.09,0,0,0-1.45,3c-.16.51-.31,1-.47,1.53a26.56,26.56,0,0,0-1.67,7.41c0,.22-.06.44-.07.66-.08,1.44-.21,2.85-2,3.08a33.37,33.37,0,0,0-4.89,1.8l-1.28.37-1,.44-.52.17a12.39,12.39,0,0,0-3.6,1.14l-1.28.29-6.68,1.8c-.4.29-.88.16-1.31.29-3.42.57-6.8,1.33-10.22,1.93-1.92.33-3.13-.05-4.12-1.62a.59.59,0,0,0-.36-.59,22.73,22.73,0,0,0-5.85-6.12h0a19.36,19.36,0,0,0-9.64-4.84,15.19,15.19,0,0,0-9.06.63l-.4.06a18.05,18.05,0,0,0-7.33,4.15.78.78,0,0,0-.67.52,7.84,7.84,0,0,0-1.77,1.63h0a9.78,9.78,0,0,0-1.89,2.07.29.29,0,0,0-.23.39,21.89,21.89,0,0,0-3,3.85c-.69-.11-1.42.16-2.07-.24l-1-.17-.52-.08-7.71-1.58c-.44-.24-1,.15-1.41-.31l0-.06,0,.05-.6-.16-5.93-1.6-1.28-.3a13.13,13.13,0,0,0-3.6-1.14l-.52-.17-1-.44-1.28-.37A32.91,32.91,0,0,0,95,295.28c-.63.06-.91-.72-1.54-.64a1.83,1.83,0,0,0-.45-.25c-1.2-.29-1.62-1-1.35-2.26.32-1.54.49-3.11.67-4.67.06-.53.31-1.12-.27-1.58-3.14-2.47-6.28-5-9.42-7.44l-.3-.07a.27.27,0,0,0-.18-.15l-.45-.6c-.09-.23-.48-.33-.36-.62s.43-.08.64,0a34.69,34.69,0,0,0,4.72,1.45h0a18,18,0,0,0,4.17,1.28l.69.17a3.29,3.29,0,0,0,1.38.5,154.84,154.84,0,0,0,17.66,4,129.88,129.88,0,0,0,31.14,1.28,132,132,0,0,0,37.18-8.1A136.37,136.37,0,0,0,218,255a137.81,137.81,0,0,0,29.67-34,134.88,134.88,0,0,0,15.78-36.37,111.74,111.74,0,0,0,2.5-11c.15-.93.71-.82,1.31-.82h12.86c1.47,0,1.45,0,.75-1.26L264.26,142c-3.05-5.42-6.12-10.82-9.14-16.26-.64-1.16-.83-.48-1.18.15q-10,17.7-19.94,35.39c-1.94,3.45-3.88,6.89-5.86,10.32-.53.92-.34,1.16.67,1.15,4.68,0,9.35,0,14,0,1,0,1.28.25.94,1.19-1.23,2.4-2,5-3.11,7.46a116.86,116.86,0,0,1-9.5,17.2,112.52,112.52,0,0,1-13.51,16.79c-.25.25-.42.7-.92.58,1.84-2.29,3.74-4.54,5.5-6.89A101.71,101.71,0,0,0,235,186.86c.8-1.93,1.5-3.91,2.32-5.83.42-1,.08-1.14-.77-1.13-3.13,0-6.27-.11-9.39,0a6.44,6.44,0,0,1-6.62-3.75,7.61,7.61,0,0,1,0-5.26c2.4-4.24,4.81-8.46,7.2-12.71q6.52-11.59,13-23.23c1.68-3,3.35-6,5.05-9a2.7,2.7,0,0,0,.28-2.12,125.23,125.23,0,0,0-15.71-38.21,123.28,123.28,0,0,0-26.6-30.4A119,119,0,0,0,94.66,32.88a120.53,120.53,0,0,0-21.88,9,126.12,126.12,0,0,0-14.06,8.67,123.66,123.66,0,0,0-19.11,16.9,2.06,2.06,0,0,0-.2.33l-1.78,2.07h0a.2.2,0,0,0-.22.24l0,.06L34.9,72.81a34.71,34.71,0,0,0-1.68-6.18l0-.25a20.53,20.53,0,0,0-1.75-4.48c0-.21,0-.42-.22-.54-1.88-2.67-.36-4.55,1.34-6.48S35.76,51,37.36,49h0a8.55,8.55,0,0,0,2.1-2.34h0a9.34,9.34,0,0,0,1.91-1.91.22.22,0,0,0,.12-.2A6.09,6.09,0,0,0,43,43a.7.7,0,0,0,.52-.79c1-.25,1.5-1.11,2.1-1.85h0a6.59,6.59,0,0,0,2.12-2l0-.08,0,.08a21.26,21.26,0,0,0,3.62-3.15c1.33-1.08,2.69-2.13,4-3.25A1.35,1.35,0,0,1,57,31.69,26.69,26.69,0,0,0,64.09,34a1,1,0,0,0,.8.19,2.17,2.17,0,0,0,1.27.27l.47,0,.24,0,.58.1a16.65,16.65,0,0,0,5.41-.1,2.24,2.24,0,0,0,1.28-.07,5.55,5.55,0,0,0,.73-.14,23.11,23.11,0,0,0,4-2.17c2.9-1.56,5.94-3,7.72-6.06A30.25,30.25,0,0,0,90.83,15c.35-.71-.28-1.58.34-2.25l0-.34.07-.57.15-1.63a.19.19,0,0,0,.16-.17,5.66,5.66,0,0,0,1.86-.78L94.3,9l0,0V9L95,8.65a29.8,29.8,0,0,0,5.31-2l.86-.16c1.8-.62,3.65-1,5.39-1.82l1-.23a5.58,5.58,0,0,0,2-.63l.34-.08a19.43,19.43,0,0,0,3.59-.89l2.07-.49Z"/><path class="cls-2" d="M119.17,51.65c1.31.57,2,1.83,2.83,2.85a140.58,140.58,0,0,1,16.89,25.63,135.18,135.18,0,0,1,9.38,23.26,109.42,109.42,0,0,1,4.4,23.41c.14,1.87.28,3.74.45,6,.87-1.52,1.54-2.75,2.26-3.95,6.91-11.45,16.75-19.47,28.4-25.36a109,109,0,0,1,24.92-8.79,139.26,139.26,0,0,1,15.44-2.57c1-.12,1.37.2,1.54,1.15.83,4.88,1.64,9.76,2.12,14.69a118.11,118.11,0,0,1,.48,15.51c-.52,15.43-5.94,28.73-16.58,39.73-7.3,7.54-16.22,12-26.24,14.4a119.3,119.3,0,0,1-20.07,2.82c-2.91.19-5.82.33-8.73.46a3.87,3.87,0,0,1-1.93-.15c12.73-23.3,29.61-43.26,47.36-62.58-.91-.42-1.14.42-1.6.71A164.76,164.76,0,0,0,162,153.21a106.44,106.44,0,0,0-13,20.54c-2.07,4.36-2.85,9.07-3.49,13.8-.94,7-.95,13.93,1.14,20.7a49.54,49.54,0,0,0,8.57,16.19c.83,1.05,1.7,2.07,2.55,3.11a1.81,1.81,0,0,0,1.7.71c6.48-.63,12.92-1.53,19.32-2.75a182.1,182.1,0,0,0,23.15-6.07c-3.88,5.77-26.1,17.19-38.5,20.08a94.4,94.4,0,0,1-43.3.21,90,90,0,0,1-38.76-19.84c1.36.4,2.73.78,4.08,1.2a169.59,169.59,0,0,0,27.08,6c1,.14,1.17-.08,1-1a108.5,108.5,0,0,1-1-17.56,66,66,0,0,1,1.53-14,6.82,6.82,0,0,0-.76-4.84c-6.58-13.36-16-24.34-26.86-34.18a162.46,162.46,0,0,0-15.15-11.9c14.44,17.18,28.12,34.89,38.21,55.59-2.06-.25-3.83-.41-5.58-.69a105.28,105.28,0,0,1-10.81-2.25c-9.47-2.57-18.38-6.36-26.17-12.53a48.76,48.76,0,0,1-17.24-25.9c-3-11-2.57-22.11-.61-33.23a16.86,16.86,0,0,0,.42-2.32c0-1.57.91-1.72,2.18-1.63,12.6.91,24.86,3.37,36.46,8.64,9,4.1,17,9.68,22.81,18a44.63,44.63,0,0,1,7.79,20.6c.33,2.63.46,5.27.67,7.94,1-2.59,1.86-5.21,2.9-7.77a129.32,129.32,0,0,0,8.14-29,148.42,148.42,0,0,0,1.24-36.17,172.59,172.59,0,0,0-2.91-20.14A154.82,154.82,0,0,0,119.24,52a1.67,1.67,0,0,1,0-.39Z"/><path class="cls-2" d="M216.73,216c.5.12.67-.33.92-.58a112.52,112.52,0,0,0,13.51-16.79,117.37,117.37,0,0,0,9.5-17.2c1.08-2.47,1.88-5.06,3.11-7.46a72,72,0,0,1-1.48,8.38A121.91,121.91,0,0,1,212.85,239a117.19,117.19,0,0,1-28.79,22.82,112.88,112.88,0,0,1-27.37,11,114.64,114.64,0,0,1-34.64,3.41,105.94,105.94,0,0,1-24.4-4.06,4.35,4.35,0,0,0-.63-.1c-.2-.26-.46-.22-.72-.19L96,271.8a21.71,21.71,0,0,0-4.3-1.36h0c-.19-.29-.53-.24-.79-.36l-.56-.14a37.24,37.24,0,0,0-5.63-2.08c-.67-.18-1.4,0-2-.32a4.3,4.3,0,0,0-2.07-.2H78.52a14.25,14.25,0,0,0-4.12.24l-2.06.29a32.49,32.49,0,0,0-8.54,1.78,4.78,4.78,0,0,0-1.75.42l-.8.37h0a11.84,11.84,0,0,0-4.08,1.48,1.77,1.77,0,0,1-2.28-.29c-1.49-1.31-3-2.55-4.51-3.87-2.3-2.07-4.56-4.19-6.84-6.29h0a7.18,7.18,0,0,0-2.07-2.11h0a4.76,4.76,0,0,0-.51-.73c-3.13-3.21-6-6.69-8.85-10.13-1.51-1.81-2.78-3.51-1-5.84,0,0,0-.09,0-.13a.2.2,0,0,0,0-.23.86.86,0,0,0,.12-.76l.24-.28a23.08,23.08,0,0,0,1.66-7.15v-6.06a19.77,19.77,0,0,0-2-6.47.17.17,0,0,0-.16-.15,17.31,17.31,0,0,0-7.56-7.85c-.35-.33-.68-.7-1.24-.56-.11-.45-.52-.56-.86-.72a28.51,28.51,0,0,0-8.82-2.59c-1.92-.22-3.57-.54-3.91-2.88,0,0-.07-.06-.1-.09h0A38.32,38.32,0,0,0,6.8,202c-.43-.43-.16-1.08-.47-1.54l-1.95-6.29v0c-.67-2.66-1.33-5.32-2-8l-.08-.48q-1-5.28-2-10.57l-.06-1c-.4-1.38.5-2.07,1.4-2.75a.23.23,0,0,0,.19-.16,8.94,8.94,0,0,0,2.61-2.33h0a6.06,6.06,0,0,0,2.06-2.12h0c3.81-4.15,6.17-8.93,6.11-14.77a7.18,7.18,0,0,0,0-2.12,15.84,15.84,0,0,0-1.73-6.29h0a.58.58,0,0,0-.24-.53h0a12.89,12.89,0,0,0-2.07-3.62l0,0A30.43,30.43,0,0,0,1.28,132a2.1,2.1,0,0,1-1-2.14l.07-1q1-5.3,2-10.59c.24-.41,0-.86.09-1.28.1-.07.27-.13.29-.22.58-2.31,1.14-4.62,1.7-6.93v0l2-6.3c.32-.46,0-1.11.47-1.53a2.52,2.52,0,0,0,.44-1.35h0a17.56,17.56,0,0,0,1.25-3.45v0a9.45,9.45,0,0,0,.71-1.64,1.59,1.59,0,0,1,1.67-1.37,34.64,34.64,0,0,0,5.9-.83,5.38,5.38,0,0,0,2-.38,20.29,20.29,0,0,0,4.47-1.1c4.9-1.49,8.89-4.2,11.32-9l.16-.2c.28-.18.62-.33.52-.78l6.15-7.64c2.54-2.6,5-5.25,7.63-7.79A110.12,110.12,0,0,1,66.92,52.4,115.72,115.72,0,0,1,91.57,40.51,112.43,112.43,0,0,1,116,35.08a115.78,115.78,0,0,1,23-.13,113,113,0,0,1,52.85,18.84c.23.16.6.13.71.49-.44.1-.73-.21-1.06-.4A95.46,95.46,0,0,0,167.46,44a101.08,101.08,0,0,0-50.19-.57,99.26,99.26,0,0,0-20,7.21A100.56,100.56,0,0,0,75.5,65a105.27,105.27,0,0,0-34.33,58A107.44,107.44,0,0,0,39,150.89a105.54,105.54,0,0,0,16.92,51.9,107.15,107.15,0,0,0,8.89,11.83,33.81,33.81,0,0,0,4.08,4.29,75.78,75.78,0,0,0,9.67,8.86,100.75,100.75,0,0,0,52.94,21.68,96.87,96.87,0,0,0,20.64-.09,99.18,99.18,0,0,0,26.19-6.57,102.25,102.25,0,0,0,33.6-22c1.49-1.44,3-2.9,4.45-4.35l.19-.25.13-.17Z"/></g></g></g></svg>