<svg xmlns="http://www.w3.org/2000/svg" viewBox="0 0 25.54 20.92"><defs><style>.cls-1{isolation:isolate;}.cls-2{fill:#ee7bac;mix-blend-mode:hard-light;}</style></defs><g class="cls-1"><g id="Capa_2" data-name="Capa 2"><g id="Capa_1-2" data-name="Capa 1"><path class="cls-2" d="M3.13,7.92a5.05,5.05,0,0,1-1.3-1.35,5.36,5.36,0,0,1-.3-5.38c.11-.22.15-.22.31,0A14.89,14.89,0,0,0,6.87,5a14.52,14.52,0,0,0,4.45,1.31c.31,0,.63.09.94.1s.22,0,.19-.22A5.28,5.28,0,0,1,16.83.07a5.16,5.16,0,0,1,4.52,1.45.42.42,0,0,0,.45.08A10.63,10.63,0,0,0,23.92.87c.25-.12.48-.26.73-.38,0,0,.09-.11.15,0s0,.11,0,.16a5.53,5.53,0,0,1-.95,1.63,5.13,5.13,0,0,1-.91.83c-.05,0-.14.06-.16.19A11.06,11.06,0,0,0,25.5,2.5l0,.06c-.22.29-.44.59-.67.87A9.27,9.27,0,0,1,23.24,5,.64.64,0,0,0,23,5.6a12.63,12.63,0,0,1-.17,2.45,15.37,15.37,0,0,1-2.35,6.19,14.24,14.24,0,0,1-8.16,6.07,16.89,16.89,0,0,1-3.3.57,13.6,13.6,0,0,1-3.12-.13,15.14,15.14,0,0,1-5.67-2l-.09,0S0,18.62,0,18.56s.08,0,.13,0,.24,0,.36,0a11.33,11.33,0,0,0,3.07-.27,10.92,10.92,0,0,0,3.71-1.67.39.39,0,0,0,.1-.08s.14-.07.1-.15-.1-.05-.16-.05A5.26,5.26,0,0,1,2.8,12.88c-.06-.16,0-.22.15-.19a5.14,5.14,0,0,0,1.66,0c.08,0,.2,0,.21-.1s-.11-.08-.18-.1A5.23,5.23,0,0,1,1.29,9.42,4.55,4.55,0,0,1,.91,7.56c0-.17,0-.22.2-.13A5.32,5.32,0,0,0,2.89,8,.23.23,0,0,0,3.13,7.92Z"/></g></g></g></svg>